<mxfile host="65bd71144e">
    <diagram id="b3I6s7pDpbtl4KrO5DEr" name="Page-2">
        <mxGraphModel dx="1386" dy="917" grid="1" gridSize="10" guides="1" tooltips="1" connect="1" arrows="1" fold="1" page="1" pageScale="1" pageWidth="850" pageHeight="1100" math="0" shadow="0">
            <root>
                <mxCell id="0"/>
                <mxCell id="1" parent="0"/>
                <mxCell id="81JCwE_kcM6ge_QoEcJj-1" value="" style="edgeStyle=none;html=1;" edge="1" parent="1" source="81JCwE_kcM6ge_QoEcJj-2" target="81JCwE_kcM6ge_QoEcJj-5">
                    <mxGeometry relative="1" as="geometry"/>
                </mxCell>
                <mxCell id="81JCwE_kcM6ge_QoEcJj-2" value="Начало" style="ellipse;whiteSpace=wrap;html=1;" vertex="1" parent="1">
                    <mxGeometry x="245" y="40" width="90" height="40" as="geometry"/>
                </mxCell>
                <mxCell id="81JCwE_kcM6ge_QoEcJj-3" value="Конец" style="ellipse;whiteSpace=wrap;html=1;" vertex="1" parent="1">
                    <mxGeometry x="450" y="430" width="90" height="40" as="geometry"/>
                </mxCell>
                <mxCell id="81JCwE_kcM6ge_QoEcJj-4" value="" style="edgeStyle=none;html=1;" edge="1" parent="1" source="81JCwE_kcM6ge_QoEcJj-5" target="81JCwE_kcM6ge_QoEcJj-7">
                    <mxGeometry relative="1" as="geometry"/>
                </mxCell>
                <mxCell id="81JCwE_kcM6ge_QoEcJj-5" value="Считать &lt;br&gt;исходный код" style="shape=parallelogram;perimeter=parallelogramPerimeter;whiteSpace=wrap;html=1;fixedSize=1;" vertex="1" parent="1">
                    <mxGeometry x="230" y="120" width="120" height="60" as="geometry"/>
                </mxCell>
                <mxCell id="81JCwE_kcM6ge_QoEcJj-7" value="Разбить исходный код на токены" style="rounded=0;whiteSpace=wrap;html=1;" vertex="1" parent="1">
                    <mxGeometry x="230" y="230" width="120" height="60" as="geometry"/>
                </mxCell>
                <mxCell id="81JCwE_kcM6ge_QoEcJj-10" value="" style="edgeStyle=orthogonalEdgeStyle;html=1;" edge="1" parent="1" source="81JCwE_kcM6ge_QoEcJj-11">
                    <mxGeometry relative="1" as="geometry">
                        <mxPoint x="495" y="207.5" as="targetPoint"/>
                    </mxGeometry>
                </mxCell>
                <mxCell id="81JCwE_kcM6ge_QoEcJj-12" value="" style="edgeStyle=orthogonalEdgeStyle;html=1;" edge="1" parent="1" source="81JCwE_kcM6ge_QoEcJj-13">
                    <mxGeometry relative="1" as="geometry">
                        <mxPoint x="495" y="320" as="targetPoint"/>
                    </mxGeometry>
                </mxCell>
            </root>
        </mxGraphModel>
    </diagram>
    <diagram id="8Ms2iT7VWkPGQm1het5y" name="Page-1">
        <mxGraphModel dx="1386" dy="917" grid="1" gridSize="10" guides="1" tooltips="1" connect="1" arrows="1" fold="1" page="1" pageScale="1" pageWidth="850" pageHeight="1100" math="0" shadow="0">
            <root>
                <mxCell id="0"/>
                <mxCell id="1" parent="0"/>
                <mxCell id="11" value="" style="edgeStyle=none;html=1;" edge="1" parent="1" source="2" target="4">
                    <mxGeometry relative="1" as="geometry"/>
                </mxCell>
                <mxCell id="2" value="Начало" style="ellipse;whiteSpace=wrap;html=1;" vertex="1" parent="1">
                    <mxGeometry x="350" y="40" width="90" height="40" as="geometry"/>
                </mxCell>
                <mxCell id="3" value="Конец" style="ellipse;whiteSpace=wrap;html=1;" vertex="1" parent="1">
                    <mxGeometry x="555" y="430" width="90" height="40" as="geometry"/>
                </mxCell>
                <mxCell id="12" value="" style="edgeStyle=none;html=1;" edge="1" parent="1" source="4" target="5">
                    <mxGeometry relative="1" as="geometry"/>
                </mxCell>
                <mxCell id="4" value="Считать &lt;br&gt;исходный код" style="shape=parallelogram;perimeter=parallelogramPerimeter;whiteSpace=wrap;html=1;fixedSize=1;" vertex="1" parent="1">
                    <mxGeometry x="335" y="120" width="120" height="60" as="geometry"/>
                </mxCell>
                <mxCell id="13" value="" style="edgeStyle=none;html=1;" edge="1" parent="1" source="5" target="6">
                    <mxGeometry relative="1" as="geometry"/>
                </mxCell>
                <mxCell id="5" value="Разбить исходный код на токены" style="rounded=0;whiteSpace=wrap;html=1;" vertex="1" parent="1">
                    <mxGeometry x="335" y="230" width="120" height="60" as="geometry"/>
                </mxCell>
                <mxCell id="14" style="edgeStyle=orthogonalEdgeStyle;html=1;exitX=0.5;exitY=1;exitDx=0;exitDy=0;entryX=0.5;entryY=0;entryDx=0;entryDy=0;" edge="1" parent="1" source="6" target="7">
                    <mxGeometry relative="1" as="geometry">
                        <Array as="points">
                            <mxPoint x="395" y="470"/>
                            <mxPoint x="498" y="470"/>
                            <mxPoint x="498" y="50"/>
                            <mxPoint x="600" y="50"/>
                        </Array>
                    </mxGeometry>
                </mxCell>
                <mxCell id="6" value="Сгрупировать токены по синтаксическим группам" style="whiteSpace=wrap;html=1;" vertex="1" parent="1">
                    <mxGeometry x="335" y="340" width="120" height="80" as="geometry"/>
                </mxCell>
                <mxCell id="15" value="" style="edgeStyle=orthogonalEdgeStyle;html=1;" edge="1" parent="1" source="7" target="8">
                    <mxGeometry relative="1" as="geometry"/>
                </mxCell>
                <mxCell id="7" value="Проанализировать синтаксическое дерево по семантическим правилам" style="whiteSpace=wrap;html=1;" vertex="1" parent="1">
                    <mxGeometry x="540" y="80" width="120" height="90" as="geometry"/>
                </mxCell>
                <mxCell id="16" value="" style="edgeStyle=orthogonalEdgeStyle;html=1;" edge="1" parent="1" source="8" target="9">
                    <mxGeometry relative="1" as="geometry"/>
                </mxCell>
                <mxCell id="8" value="Выполнить синтаксическое дерево" style="whiteSpace=wrap;html=1;" vertex="1" parent="1">
                    <mxGeometry x="540" y="207.5" width="120" height="65" as="geometry"/>
                </mxCell>
                <mxCell id="17" value="" style="edgeStyle=orthogonalEdgeStyle;html=1;" edge="1" parent="1" source="9" target="3">
                    <mxGeometry relative="1" as="geometry"/>
                </mxCell>
                <mxCell id="9" value="Вывести &lt;br&gt;результат вычисления" style="shape=parallelogram;perimeter=parallelogramPerimeter;whiteSpace=wrap;html=1;fixedSize=1;" vertex="1" parent="1">
                    <mxGeometry x="540" y="320" width="120" height="60" as="geometry"/>
                </mxCell>
            </root>
        </mxGraphModel>
    </diagram>
</mxfile>